<svg xmlns="http://www.w3.org/2000/svg" xmlns:xlink="http://www.w3.org/1999/xlink" id="processonSvg1000" viewBox="107.0 92.0 1706.0 769.0" width="1706.0" height="769.0"><defs id="ProcessOnDefs1001"><marker id="ProcessOnMarker1015" markerUnits="userSpaceOnUse" orient="auto" markerWidth="16.23606797749979" markerHeight="10.550836550532098" viewBox="-1.0 -1.3763819204711736 16.23606797749979 10.550836550532098" refX="-1.0" refY="3.8990363547948754"><path id="ProcessOnPath1016" d="M12.0 3.8990363547948754L0.0 7.798072709589751V0.0Z" stroke="#323232" stroke-width="2.0" fill="#323232" transform="matrix(1.0,0.0,0.0,1.0,0.0,0.0)"/></marker><marker id="ProcessOnMarker1023" markerUnits="userSpaceOnUse" orient="auto" markerWidth="16.23606797749979" markerHeight="10.550836550532098" viewBox="-1.0 -1.3763819204711736 16.23606797749979 10.550836550532098" refX="-1.0" refY="3.8990363547948754"><path id="ProcessOnPath1024" d="M12.0 3.8990363547948754L0.0 7.798072709589751V0.0Z" stroke="#323232" stroke-width="2.0" fill="#323232" transform="matrix(1.0,0.0,0.0,1.0,0.0,0.0)"/></marker><marker id="ProcessOnMarker1034" markerUnits="userSpaceOnUse" orient="auto" markerWidth="16.23606797749979" markerHeight="10.550836550532098" viewBox="-1.0 -1.3763819204711736 16.23606797749979 10.550836550532098" refX="-1.0" refY="3.8990363547948754"><path id="ProcessOnPath1035" d="M12.0 3.8990363547948754L0.0 7.798072709589751V0.0Z" stroke="#323232" stroke-width="2.0" fill="#323232" transform="matrix(1.0,0.0,0.0,1.0,0.0,0.0)"/></marker><marker id="ProcessOnMarker1049" markerUnits="userSpaceOnUse" orient="auto" markerWidth="16.23606797749979" markerHeight="10.550836550532098" viewBox="-1.0 -1.3763819204711736 16.23606797749979 10.550836550532098" refX="-1.0" refY="3.8990363547948754"><path id="ProcessOnPath1050" d="M12.0 3.8990363547948754L0.0 7.798072709589751V0.0Z" stroke="#323232" stroke-width="2.0" fill="#323232" transform="matrix(1.0,0.0,0.0,1.0,0.0,0.0)"/></marker><marker id="ProcessOnMarker1056" markerUnits="userSpaceOnUse" orient="auto" markerWidth="16.23606797749979" markerHeight="10.550836550532098" viewBox="-1.0 -1.3763819204711736 16.23606797749979 10.550836550532098" refX="-1.0" refY="3.8990363547948754"><path id="ProcessOnPath1057" d="M12.0 3.8990363547948754L0.0 7.798072709589751V0.0Z" stroke="#323232" stroke-width="2.0" fill="#323232" transform="matrix(1.0,0.0,0.0,1.0,0.0,0.0)"/></marker><marker id="ProcessOnMarker1063" markerUnits="userSpaceOnUse" orient="auto" markerWidth="16.23606797749979" markerHeight="10.550836550532098" viewBox="-1.0 -1.3763819204711736 16.23606797749979 10.550836550532098" refX="-1.0" refY="3.8990363547948754"><path id="ProcessOnPath1064" d="M12.0 3.8990363547948754L0.0 7.798072709589751V0.0Z" stroke="#323232" stroke-width="2.0" fill="#323232" transform="matrix(1.0,0.0,0.0,1.0,0.0,0.0)"/></marker><marker id="ProcessOnMarker1070" markerUnits="userSpaceOnUse" orient="auto" markerWidth="16.23606797749979" markerHeight="10.550836550532098" viewBox="-1.0 -1.3763819204711736 16.23606797749979 10.550836550532098" refX="-1.0" refY="3.8990363547948754"><path id="ProcessOnPath1071" d="M12.0 3.8990363547948754L0.0 7.798072709589751V0.0Z" stroke="#323232" stroke-width="2.0" fill="#323232" transform="matrix(1.0,0.0,0.0,1.0,0.0,0.0)"/></marker><marker id="ProcessOnMarker1078" markerUnits="userSpaceOnUse" orient="auto" markerWidth="16.23606797749979" markerHeight="10.550836550532098" viewBox="-1.0 -1.3763819204711736 16.23606797749979 10.550836550532098" refX="-1.0" refY="3.8990363547948754"><path id="ProcessOnPath1079" d="M12.0 3.8990363547948754L0.0 7.798072709589751V0.0Z" stroke="#323232" stroke-width="2.0" fill="#323232" transform="matrix(1.0,0.0,0.0,1.0,0.0,0.0)"/></marker><marker id="ProcessOnMarker1094" markerUnits="userSpaceOnUse" orient="auto" markerWidth="16.23606797749979" markerHeight="10.550836550532098" viewBox="-1.0 -1.3763819204711736 16.23606797749979 10.550836550532098" refX="-1.0" refY="3.8990363547948754"><path id="ProcessOnPath1095" d="M12.0 3.8990363547948754L0.0 7.798072709589751V0.0Z" stroke="#009900" stroke-width="2.0" fill="#009900" transform="matrix(1.0,0.0,0.0,1.0,0.0,0.0)"/></marker><marker id="ProcessOnMarker1098" markerUnits="userSpaceOnUse" orient="auto" markerWidth="16.23606797749979" markerHeight="10.550836550532098" viewBox="-1.0 -1.3763819204711736 16.23606797749979 10.550836550532098" refX="-1.0" refY="3.8990363547948754"><path id="ProcessOnPath1099" d="M12.0 3.8990363547948754L0.0 7.798072709589751V0.0Z" stroke="#00994d" stroke-width="2.0" fill="#00994d" transform="matrix(1.0,0.0,0.0,1.0,0.0,0.0)"/></marker><marker id="ProcessOnMarker1102" markerUnits="userSpaceOnUse" orient="auto" markerWidth="16.23606797749979" markerHeight="10.550836550532098" viewBox="-1.0 -1.3763819204711736 16.23606797749979 10.550836550532098" refX="-1.0" refY="3.8990363547948754"><path id="ProcessOnPath1103" d="M12.0 3.8990363547948754L0.0 7.798072709589751V0.0Z" stroke="#999900" stroke-width="2.0" fill="#999900" transform="matrix(1.0,0.0,0.0,1.0,0.0,0.0)"/></marker><marker id="ProcessOnMarker1116" markerUnits="userSpaceOnUse" orient="auto" markerWidth="16.23606797749979" markerHeight="10.550836550532098" viewBox="-1.0 -1.3763819204711736 16.23606797749979 10.550836550532098" refX="-1.0" refY="3.8990363547948754"><path id="ProcessOnPath1117" d="M12.0 3.8990363547948754L0.0 7.798072709589751V0.0Z" stroke="#999900" stroke-width="2.0" fill="#999900" transform="matrix(1.0,0.0,0.0,1.0,0.0,0.0)"/></marker></defs><g id="ProcessOnG1002"><path id="ProcessOnPath1003" d="M107.0 92.0H1813.0V861.0H107.0V92.0Z" fill="#ffffff"/><g id="ProcessOnG1004"><g id="ProcessOnG1005" transform="matrix(1.0,0.0,0.0,1.0,767.0,112.0)" opacity="1.0"><path id="ProcessOnPath1006" d="M0 0L110.0 0L110.0 42.0L0 42.0Z" stroke="#323232" stroke-width="2.0" stroke-dasharray="none" fill="#ffffff"/><g id="ProcessOnG1007" transform="matrix(1.0,0.0,0.0,1.0,10.0,12.875)"><text id="ProcessOnText1008" fill="#323232" font-size="13" x="44.0" y="13.325" font-family="Arial" size="13" text-anchor="middle" font-weight="normal" font-style="normal" family="Arial" text-decoration="none">ResetSystem</text></g></g><g id="ProcessOnG1009" transform="matrix(1.0,0.0,0.0,1.0,1192.0,268.0)" opacity="1.0"><path id="ProcessOnPath1010" d="M0 29.5L60.0 0L120.0 29.5L60.0 59.0Z" stroke="#323232" stroke-width="2.0" stroke-dasharray="none" fill="#ffffff"/><g id="ProcessOnG1011" transform="matrix(1.0,0.0,0.0,1.0,10.0,21.67)"><text id="ProcessOnText1012" fill="#323232" font-size="13" x="49.0" y="13.325" font-family="Arial" size="13" text-anchor="middle" font-weight="normal" font-style="normal" family="Arial" text-decoration="none">IAP_ReadFlag();</text></g></g><g id="ProcessOnG1013"><path id="ProcessOnPath1014" d="M822.0 154.0L822.0 211.0L1252.0 211.0L1252.0 252.7639320225002" stroke="#323232" stroke-width="2.0" stroke-dasharray="none" fill="none" marker-end="url(#ProcessOnMarker1015)"/></g><g id="ProcessOnG1017" transform="matrix(1.0,0.0,0.0,1.0,157.0,379.0)" opacity="1.0"><path id="ProcessOnPath1018" d="M0 0L165.0 0L165.0 35.0L0 35.0Z" stroke="#323232" stroke-width="2.0" stroke-dasharray="none" fill="#ffffff"/><g id="ProcessOnG1019" transform="matrix(1.0,0.0,0.0,1.0,10.0,9.375)"><text id="ProcessOnText1020" fill="#323232" font-size="13" x="71.5" y="13.325" font-family="Arial" size="13" text-anchor="middle" font-weight="normal" font-style="normal" family="Arial" text-decoration="none">APP</text></g></g><g id="ProcessOnG1021"><path id="ProcessOnPath1022" d="M1192.0 297.5L239.5 297.5L239.5 363.7639320225002" stroke="#323232" stroke-width="2.0" stroke-dasharray="none" fill="none" marker-end="url(#ProcessOnMarker1023)"/><g id="ProcessOnG1025" transform="matrix(1.0,0.0,0.0,1.0,682.6180339887499,289.375)"><path id="ProcessOnPath1026" d="M0 0H136.0V16.25H0Z" fill="#fff" transform="matrix(1.0,0.0,0.0,1.0,-68.0,0.0)"/><text id="ProcessOnText1027" fill="#323232" font-size="13" x="0.0" y="13.325" font-family="Arial" size="13" text-anchor="middle" font-weight="normal" font-style="normal" family="Arial" text-decoration="none">APPRUN_FLAG_DATA</text></g></g><g id="ProcessOnG1028" transform="matrix(1.0,0.0,0.0,1.0,909.0,508.5)" opacity="1.0"><path id="ProcessOnPath1029" d="M0 0L134.0 0L134.0 39.5L0 39.5Z" stroke="#323232" stroke-width="2.0" stroke-dasharray="none" fill="#ffffff"/><g id="ProcessOnG1030" transform="matrix(1.0,0.0,0.0,1.0,10.0,11.625)"><text id="ProcessOnText1031" fill="#323232" font-size="13" x="56.0" y="13.325" font-family="Arial" size="13" text-anchor="middle" font-weight="normal" font-style="normal" family="Arial" text-decoration="none">IAP_Main_Menu();</text></g></g><g id="ProcessOnG1032"><path id="ProcessOnPath1033" d="M1192.0 297.5L976.0 297.5L976.0 493.2639320225002" stroke="#323232" stroke-width="2.0" stroke-dasharray="none" fill="none" marker-end="url(#ProcessOnMarker1034)"/><g id="ProcessOnG1036" transform="matrix(1.0,0.0,0.0,1.0,986.1180339887499,289.375)"><path id="ProcessOnPath1037" d="M0 0H104.0V16.25H0Z" fill="#fff" transform="matrix(1.0,0.0,0.0,1.0,-52.0,0.0)"/><text id="ProcessOnText1038" fill="#323232" font-size="13" x="0.0" y="13.325" font-family="Arial" size="13" text-anchor="middle" font-weight="normal" font-style="normal" family="Arial" text-decoration="none">INIT_FLAG_DATA</text></g></g><g id="ProcessOnG1039" transform="matrix(1.0,0.0,0.0,1.0,1332.0,396.0)" opacity="1.0"><path id="ProcessOnPath1040" d="M0 40.0L60.0 0L120.0 40.0L60.0 80.0Z" stroke="#323232" stroke-width="2.0" stroke-dasharray="none" fill="#ffffff"/><g id="ProcessOnG1041" transform="matrix(1.0,0.0,0.0,1.0,10.0,32.275)"><text id="ProcessOnText1042" fill="#323232" font-size="13" x="49.0" y="13.325" font-family="Arial" size="13" text-anchor="middle" font-weight="normal" font-style="normal" family="Arial" text-decoration="none">IAP_Update();</text></g></g><g id="ProcessOnG1043" transform="matrix(1.0,0.0,0.0,1.0,1695.0,377.0)" opacity="1.0"><path id="ProcessOnPath1044" d="M0 0L98.0 0L98.0 30.0L0 30.0Z" stroke="#323232" stroke-width="2.0" stroke-dasharray="none" fill="#ffffff"/><g id="ProcessOnG1045" transform="matrix(1.0,0.0,0.0,1.0,10.0,6.875)"><text id="ProcessOnText1046" fill="#323232" font-size="13" x="38.0" y="13.325" font-family="Arial" size="13" text-anchor="middle" font-weight="normal" font-style="normal" family="Arial" text-decoration="none">IAP_Erase();</text></g></g><g id="ProcessOnG1047"><path id="ProcessOnPath1048" d="M1312.0 297.5L1392.0 297.5L1392.0 380.7639320225002" stroke="#323232" stroke-width="2.0" stroke-dasharray="none" fill="none" marker-end="url(#ProcessOnMarker1049)"/><g id="ProcessOnG1051" transform="matrix(1.0,0.0,0.0,1.0,1392.0,291.00696601125014)"><path id="ProcessOnPath1052" d="M0 0H134.0V16.25H0Z" fill="#fff" transform="matrix(1.0,0.0,0.0,1.0,-67.0,0.0)"/><text id="ProcessOnText1053" fill="#323232" font-size="13" x="0.0" y="13.325" font-family="Arial" size="13" text-anchor="middle" font-weight="normal" font-style="normal" family="Arial" text-decoration="none">UPDATE_FLAG_DATA</text></g></g><g id="ProcessOnG1054"><path id="ProcessOnPath1055" d="M1312.0 297.5L1744.0 297.5L1744.0 361.7639320225002" stroke="#323232" stroke-width="2.0" stroke-dasharray="none" fill="none" marker-end="url(#ProcessOnMarker1056)"/><g id="ProcessOnG1058" transform="matrix(1.0,0.0,0.0,1.0,1560.1319660112501,289.375)"><path id="ProcessOnPath1059" d="M0 0H127.0V16.25H0Z" fill="#fff" transform="matrix(1.0,0.0,0.0,1.0,-63.5,0.0)"/><text id="ProcessOnText1060" fill="#323232" font-size="13" x="0.0" y="13.325" font-family="Arial" size="13" text-anchor="middle" font-weight="normal" font-style="normal" family="Arial" text-decoration="none">ERASE_FLAG_DATA</text></g></g><g id="ProcessOnG1061"><path id="ProcessOnPath1062" d="M1332.0 436.0L239.5 436.0L239.5 429.2360679774998" stroke="#323232" stroke-width="2.0" stroke-dasharray="none" fill="none" marker-end="url(#ProcessOnMarker1063)"/><g id="ProcessOnG1065" transform="matrix(1.0,0.0,0.0,1.0,782.3680339887499,427.875)"><path id="ProcessOnPath1066" d="M0 0H136.0V16.25H0Z" fill="#fff" transform="matrix(1.0,0.0,0.0,1.0,-68.0,0.0)"/><text id="ProcessOnText1067" fill="#323232" font-size="13" x="0.0" y="13.325" font-family="Arial" size="13" text-anchor="middle" font-weight="normal" font-style="normal" family="Arial" text-decoration="none">APPRUN_FLAG_DATA</text></g></g><g id="ProcessOnG1068"><path id="ProcessOnPath1069" d="M1452.0 436.0L1482.0 436.0L1482.0 528.25L1058.2360679774997 528.25" stroke="#323232" stroke-width="2.0" stroke-dasharray="none" fill="none" marker-end="url(#ProcessOnMarker1070)"/></g><g id="ProcessOnG1072" transform="matrix(1.0,0.0,0.0,1.0,1175.0,407.0)" opacity="1.0"><path id="ProcessOnPath1073" d="M0 0L160.0 0L160.0 40.0L0 40.0Z" stroke="none" stroke-width="0.0" stroke-dasharray="none" fill="none"/><g id="ProcessOnG1074" transform="matrix(1.0,0.0,0.0,1.0,0.0,11.875)"><text id="ProcessOnText1075" fill="#323232" font-size="13" x="79.0" y="13.325" font-family="Arial" size="13" text-anchor="middle" font-weight="normal" font-style="normal" family="Arial" text-decoration="none">更新成功</text></g></g><g id="ProcessOnG1076"><path id="ProcessOnPath1077" d="M1744.0 407.0L1744.0 528.25L1058.2360679774997 528.25" stroke="#323232" stroke-width="2.0" stroke-dasharray="none" fill="none" marker-end="url(#ProcessOnMarker1078)"/><g id="ProcessOnG1080" transform="matrix(1.0,0.0,0.0,1.0,1461.7430339887499,520.125)"><path id="ProcessOnPath1081" d="M0 0H108.0V16.25H0Z" fill="#fff" transform="matrix(1.0,0.0,0.0,1.0,-54.0,0.0)"/><text id="ProcessOnText1082" fill="#323232" font-size="13" x="0.0" y="13.325" font-family="Arial" size="13" text-anchor="middle" font-weight="normal" font-style="normal" family="Arial" text-decoration="none">INIT_FLAG_DATA)</text></g></g><g id="ProcessOnG1083" transform="matrix(1.0,0.0,0.0,1.0,157.0,528.0)" opacity="1.0"><path id="ProcessOnPath1084" d="M18.0 0L0 12.9L0 116.1L18.0 129.0M208.0 129.0L226.0 116.1L226.0 12.9L208.0 0" stroke="#323232" stroke-width="2.0" stroke-dasharray="none" fill="none"/><path id="ProcessOnPath1085" d="M0 0L226.0 0L226.0 129.0L0 129.0Z" stroke="none" stroke-width="0.0" stroke-dasharray="none" fill="none"/><g id="ProcessOnG1086" transform="matrix(1.0,0.0,0.0,1.0,10.0,23.875)"><text id="ProcessOnText1087" fill="#323232" font-size="13" x="0.0" y="13.325" font-family="Arial" size="13" text-anchor="start" font-weight="normal" font-style="normal" family="Arial" text-decoration="none"></text><text id="ProcessOnText1088" fill="#323232" font-size="13" x="0.0" y="29.575" font-family="Arial" size="13" text-anchor="start" font-weight="normal" font-style="normal" family="Arial" text-decoration="none">"update"&gt;UPDATE_FLAG_DATA</text><text id="ProcessOnText1089" fill="#323232" font-size="13" x="0.0" y="45.825" font-family="Arial" size="13" text-anchor="start" font-weight="normal" font-style="normal" family="Arial" text-decoration="none">"erase"&gt;ERASE_FLAG_DATA</text><text id="ProcessOnText1090" fill="#323232" font-size="13" x="0.0" y="62.075" font-family="Arial" size="13" text-anchor="start" font-weight="normal" font-style="normal" family="Arial" text-decoration="none">"menu"&gt;INIT_FLAG_DATA</text><text id="ProcessOnText1091" fill="#323232" font-size="13" x="0.0" y="78.325" font-family="Arial" size="13" text-anchor="start" font-weight="normal" font-style="normal" family="Arial" text-decoration="none">"runapp"</text></g></g><g id="ProcessOnG1092"><path id="ProcessOnPath1093" d="M157.0 396.5L127.0 396.5L127.0 592.5L141.7639320225002 592.5" stroke="#009900" stroke-width="2.0" stroke-dasharray="none" fill="none" marker-end="url(#ProcessOnMarker1094)"/></g><g id="ProcessOnG1096"><path id="ProcessOnPath1097" d="M383.0 592.5L575.0 592.5L575.0 133.0L751.7639320225002 133.0" stroke="#00994d" stroke-width="2.0" stroke-dasharray="none" fill="none" marker-end="url(#ProcessOnMarker1098)"/></g><g id="ProcessOnG1100"><path id="ProcessOnPath1101" d="M976.0 548.0L976.0 785.0L993.7639320225002 785.0" stroke="#999900" stroke-width="2.0" stroke-dasharray="none" fill="none" marker-end="url(#ProcessOnMarker1102)"/></g><g id="ProcessOnG1104" transform="matrix(1.0,0.0,0.0,1.0,1009.0,729.0)" opacity="1.0"><path id="ProcessOnPath1105" d="M18.0 0Q9.0 0 9.0 9.0L9.0 47.0Q9.0 56.0 0 56.0Q9.0 56.0 9.0 65.0L9.0 103.0Q9.0 112.0 18.0 112.0" stroke="#323232" stroke-width="2.0" stroke-dasharray="none" fill="none"/><path id="ProcessOnPath1106" d="M211.0 112.0Q220.0 112.0 220.0 103.0L220.0 65.0Q220.0 56.0 229.0 56.0Q220.0 56.0 220.0 47.0L220.0 9.0Q220.0 0 211.0 0" stroke="#323232" stroke-width="2.0" stroke-dasharray="none" fill="none"/><path id="ProcessOnPath1107" d="M0 0L229.0 0L229.0 112.0L0 112.0Z" stroke="none" stroke-width="0.0" stroke-dasharray="none" fill="none"/><g id="ProcessOnG1108" transform="matrix(1.0,0.0,0.0,1.0,10.0,15.375)"><text id="ProcessOnText1109" fill="#323232" font-size="13" x="0.0" y="13.325" font-family="Arial" size="13" text-anchor="start" font-weight="normal" font-style="normal" family="Arial" text-decoration="none"></text><text id="ProcessOnText1110" fill="#323232" font-size="13" x="0.0" y="29.575" font-family="Arial" size="13" text-anchor="start" font-weight="normal" font-style="normal" family="Arial" text-decoration="none">"update"&gt;UPDATE_FLAG_DATA</text><text id="ProcessOnText1111" fill="#323232" font-size="13" x="0.0" y="45.825" font-family="Arial" size="13" text-anchor="start" font-weight="normal" font-style="normal" family="Arial" text-decoration="none">"erase"&gt;ERASE_FLAG_DATA</text><text id="ProcessOnText1112" fill="#323232" font-size="13" x="0.0" y="62.075" font-family="Arial" size="13" text-anchor="start" font-weight="normal" font-style="normal" family="Arial" text-decoration="none">"menu"&gt;INIT_FLAG_DATA</text><text id="ProcessOnText1113" fill="#323232" font-size="13" x="0.0" y="78.325" font-family="Arial" size="13" text-anchor="start" font-weight="normal" font-style="normal" family="Arial" text-decoration="none">"runapp"</text></g></g><g id="ProcessOnG1114"><path id="ProcessOnPath1115" d="M1238.0 785.0L1252.0 785.0L1252.0 342.2360679774998" stroke="#999900" stroke-width="2.0" stroke-dasharray="none" fill="none" marker-end="url(#ProcessOnMarker1116)"/></g><g id="ProcessOnG1118" transform="matrix(1.0,0.0,0.0,1.0,272.0,121.0)" opacity="1.0"><path id="ProcessOnPath1119" d="M0 0L219.0 0L219.0 41.0L0 41.0Z" stroke="#323232" stroke-width="2.0" stroke-dasharray="none" fill="#ffffff"/><g id="ProcessOnG1120" transform="matrix(1.0,0.0,0.0,1.0,10.0,4.25)"><text id="ProcessOnText1121" fill="#323232" font-size="13" x="98.5" y="13.325" font-family="Arial" size="13" text-anchor="middle" font-weight="normal" font-style="normal" family="Arial" text-decoration="none">程序初始标志位</text><text id="ProcessOnText1122" fill="#323232" font-size="13" x="98.5" y="29.575" font-family="Arial" size="13" text-anchor="middle" font-weight="normal" font-style="normal" family="Arial" text-decoration="none">为APPRUN_FLAG_DATA</text></g></g></g></g></svg>